<?xml version="1.0" encoding="utf-8"?>
<!-- Generator: Adobe Illustrator 24.3.0, SVG Export Plug-In . SVG Version: 6.00 Build 0)  -->
<svg version="1.1" id="Layer_1" xmlns="http://www.w3.org/2000/svg" xmlns:xlink="http://www.w3.org/1999/xlink" x="0px" y="0px"
	 viewBox="0 0 936.9 106" style="enable-background:new 0 0 936.9 106;" xml:space="preserve">
<style type="text/css">
	.st0{fill:#5777FF;stroke:#5777FF;stroke-width:5;}
	.st1{fill:url(#SVGID_1_);}
	.st2{fill:url(#SVGID_2_);}
	.st3{fill:url(#SVGID_3_);}
	.st4{fill:url(#SVGID_4_);}
</style>
<path class="st0" d="M778.6,20.6v2.5h2.5h23.7v73.5v2.5h2.5h12.5h2.5v-2.5V23.1H846h2.5v-2.5v-11V7.1H846h-64.9h-2.5v2.5V20.6z"/>
<path class="st0" d="M690.6,7.1h-2.5v2.5v87v2.5h2.5H703h2.5v-2.5V43.3v-0.1v-0.1l-0.1-1.9l2.5,3.5l0,0l0,0L745.8,98l0.7,1.1h1.3
	h8.9h2.5v-2.5v-87V7.1h-2.5h-12.4h-2.5v2.5v55.2v0.1V65L701.6,8.2l-0.7-1.1h-1.3C699.6,7.1,690.6,7.1,690.6,7.1z"/>
<path class="st0" d="M624,7.1h-1.7l-0.6,1.5l-36.7,87l-1.5,3.5h3.8h12.8h1.7l0.6-1.6l8.1-20.3h35.2l8.2,20.3l0.6,1.6h1.7h13h3.8
	l-1.5-3.5l-36.7-87l-0.6-1.5h-1.7H624z M616.6,62.2l11.6-28.9l11.6,28.9H616.6z"/>
<path class="st0" d="M497.5,7.1H495v2.5v87v2.5h2.5h12.4h2.5v-2.5V60.1l32,38.1l0.7,0.9h1.2h15.5h5.4l-3.5-4.1l-37.1-43.5L561,11.2
	l3.5-4.1h-5.4h-15.6h-1.2L541.5,8l-29.1,35.4V9.6V7.1h-2.5H497.5z"/>
<path class="st0" d="M455.6,7.1h-2.5v2.5v87v2.5h2.5h12.5h2.5v-2.5v-87V7.1h-2.5H455.6z"/>
<path class="st0" d="M360.1,7.1h-2.5v2.5v87v2.5h2.5h12.4h2.5v-2.5V43.3v-0.1v-0.1l-0.1-1.9l2.5,3.5l0,0l0,0L415.3,98l0.7,1.1h1.3
	h8.9h2.5v-2.5v-87V7.1h-2.5h-12.4h-2.5v2.5v55.2v0.1V65L371.1,8.2l-0.7-1.1h-1.3C369.1,7.1,360.1,7.1,360.1,7.1z"/>
<path class="st0" d="M282.1,96.9v2.3l2.3,0.2c3.1,0.2,5.6,0.3,7.5,0.3c7,0,13.1-0.9,18.3-2.9c15.6-5.9,22.9-21.2,22.9-44.2v-43V7.1
	h-2.5H286h-2.5v2.5v11.1v2.5h2.5h29.6v29.4c0,11.5-2,19.3-5.5,23.9l0,0c-1.7,2.3-3.9,3.9-6.4,4.9l0,0c-2.6,1-5.9,1.6-10.1,1.6
	c-4.3,0-7-0.3-8.3-0.6l-3.2-1v3.4L282.1,96.9L282.1,96.9z"/>
<path class="st0" d="M219.5,7.1h-1.7l-0.6,1.5l-36.7,87l-1.5,3.5h3.8h12.8h1.7l0.6-1.6l8.1-20.3h35.2l8.2,20.3l0.6,1.6h1.7h13h3.8
	l-1.5-3.5l-36.7-87l-0.6-1.5H228H219.5z M212.1,62.2l11.6-28.9l11.6,28.9H212.1z"/>
<path class="st0" d="M97,7.1h-2.5v2.5v87v2.5H97h12.5h2.5v-2.5V67.2h6.6c2.2,8.3,6.2,15.4,11.9,21.1c7.1,7.1,15.7,10.7,25.7,10.7
	h2.8h2.5v-2.4V84.5v-3.1l-3.1,0.7c-0.7,0.2-2.3,0.3-5,0.2c-1.1-0.1-2.7-0.5-4.9-1.6l0,0l0,0c-5.7-2.8-10-7.6-12.8-14.8
	c6.3-1.6,11.4-4.4,15.4-8.5c2.4-2.5,4.2-5.4,5.5-8.8c1.4-3.5,2-7.5,2-12.2c0-4.8-0.9-9.2-2.8-13.2l0,0l0,0c-5.4-11-17.2-16-34.1-16
	L97,7.1L97,7.1z M130.9,23.2L130.9,23.2c3.4,1.1,5.8,2.7,7.3,4.8s2.4,4.9,2.4,8.7c0,5.7-1.6,9.4-4.5,11.7c-3,2.4-7.9,3.8-15.2,3.8
	H112V22.1h9.9C125.6,22.1,128.5,22.5,130.9,23.2z"/>
<linearGradient id="SVGID_1_" gradientUnits="userSpaceOnUse" x1="58.7743" y1="782.1343" x2="24.5473" y2="853.7703" gradientTransform="matrix(1 0 0 1 0 -746)">
	<stop  offset="0" style="stop-color:#2D49C0"/>
	<stop  offset="0.5" style="stop-color:#4260E1"/>
	<stop  offset="1" style="stop-color:#6B87FF"/>
</linearGradient>
<path class="st1" d="M55.5,101.6H74L37.3,51.4H5l28.6,39.2C38.7,97.5,46.8,101.6,55.5,101.6z"/>
<linearGradient id="SVGID_2_" gradientUnits="userSpaceOnUse" x1="64.7894" y1="734.8811" x2="9.1219" y2="817.6616" gradientTransform="matrix(1 0 0 1 0 -746)">
	<stop  offset="0" style="stop-color:#2D49C0"/>
	<stop  offset="0.5" style="stop-color:#4260E1"/>
	<stop  offset="1" style="stop-color:#6B87FF"/>
</linearGradient>
<path class="st2" d="M53.3,4.6H72L21.2,73.2L5,51.4l26.6-35.9C36.6,8.6,44.7,4.6,53.3,4.6z"/>
<linearGradient id="SVGID_3_" gradientUnits="userSpaceOnUse" x1="919.1011" y1="781.9272" x2="885.1791" y2="853.9362" gradientTransform="matrix(1 0 0 1 0 -746)">
	<stop  offset="0" style="stop-color:#2D49C0"/>
	<stop  offset="0.5" style="stop-color:#4260E1"/>
	<stop  offset="1" style="stop-color:#6B87FF"/>
</linearGradient>
<path class="st3" d="M883.8,101.6H865l37.2-50.2H935l-29,39.2C900.8,97.5,892.6,101.6,883.8,101.6z"/>
<linearGradient id="SVGID_4_" gradientUnits="userSpaceOnUse" x1="927.1552" y1="734.5145" x2="871.7952" y2="818.036" gradientTransform="matrix(1 0 0 1 0 -746)">
	<stop  offset="0" style="stop-color:#2D49C0"/>
	<stop  offset="0.5" style="stop-color:#4260E1"/>
	<stop  offset="1" style="stop-color:#6B87FF"/>
</linearGradient>
<path class="st4" d="M886,4.6h-19l51.5,68.6L935,51.4l-27-35.9C902.9,8.6,894.7,4.6,886,4.6z"/>
</svg>
