<?xml version="1.0" encoding="utf-8"?>
<!-- Generator: Adobe Illustrator 24.3.0, SVG Export Plug-In . SVG Version: 6.00 Build 0)  -->
<svg version="1.1" id="Layer_1" xmlns="http://www.w3.org/2000/svg" xmlns:xlink="http://www.w3.org/1999/xlink" x="0px" y="0px"
	 viewBox="0 0 314.7 135.6" style="enable-background:new 0 0 314.7 135.6;" xml:space="preserve">
<style type="text/css">
	.st0{fill:url(#SVGID_1_);}
	.st1{fill:url(#SVGID_2_);}
	.st2{fill:url(#SVGID_3_);}
	.st3{fill:url(#SVGID_4_);}
	.st4{fill:#5777FF;stroke:#5777FF;stroke-width:5;}
</style>
<linearGradient id="SVGID_1_" gradientUnits="userSpaceOnUse" x1="72.4168" y1="791.9707" x2="26.9601" y2="886.1377" gradientTransform="matrix(1 0 0 1 0 -746)">
	<stop  offset="0" style="stop-color:#2D49C0"/>
	<stop  offset="0.5" style="stop-color:#4260E1"/>
	<stop  offset="1" style="stop-color:#6B87FF"/>
</linearGradient>
<path class="st0" d="M67.7,132.1h24.2L44,65.8H1.8l37.3,51.7C45.8,126.7,56.4,132.1,67.7,132.1z"/>
<linearGradient id="SVGID_2_" gradientUnits="userSpaceOnUse" x1="80.3401" y1="729.7405" x2="6.6003" y2="838.2773" gradientTransform="matrix(1 0 0 1 0 -746)">
	<stop  offset="0" style="stop-color:#2D49C0"/>
	<stop  offset="0.5" style="stop-color:#4260E1"/>
	<stop  offset="1" style="stop-color:#6B87FF"/>
</linearGradient>
<path class="st1" d="M64.9,4.1h24.4L22.9,94.6L1.8,65.8l34.7-47.3C43.1,9.4,53.7,4.1,64.9,4.1z"/>
<linearGradient id="SVGID_3_" gradientUnits="userSpaceOnUse" x1="294.207" y1="791.9915" x2="248.75" y2="886.1585" gradientTransform="matrix(1 0 0 1 0 -746)">
	<stop  offset="0" style="stop-color:#2D49C0"/>
	<stop  offset="0.5" style="stop-color:#4260E1"/>
	<stop  offset="1" style="stop-color:#6B87FF"/>
</linearGradient>
<path class="st2" d="M247.8,132.1h-24.2l47.9-66.3h42.2l-37.3,51.7C269.7,126.7,259.1,132.1,247.8,132.1z"/>
<linearGradient id="SVGID_4_" gradientUnits="userSpaceOnUse" x1="304.6673" y1="729.6856" x2="230.9353" y2="838.2423" gradientTransform="matrix(1 0 0 1 0 -746)">
	<stop  offset="0" style="stop-color:#2D49C0"/>
	<stop  offset="0.5" style="stop-color:#4260E1"/>
	<stop  offset="1" style="stop-color:#6B87FF"/>
</linearGradient>
<path class="st3" d="M250.5,4.1h-24.4l66.4,90.5l21.1-28.8l-34.7-47.3C272.3,9.4,261.8,4.1,250.5,4.1z"/>
<path class="st4" d="M115.4,5.2h-2.5v2.5v120.8v2.5h2.5h17.4h2.5v-2.5V86.7h11c3,11.8,8.5,21.7,16.5,29.6
	c9.7,9.7,21.4,14.6,35.2,14.6h3.9h2.5v-2.5v-16.8v-3.1l-3.1,0.7c-1.2,0.3-3.5,0.4-7.2,0.3c-1.7-0.1-4.1-0.8-7.2-2.3l0,0l0,0
	c-8.5-4.1-14.8-11.4-18.8-22.1c9.1-2.1,16.5-6,22-11.8c3.2-3.3,5.7-7.3,7.4-11.9c1.8-4.7,2.7-10.2,2.7-16.6c0-6.6-1.3-12.6-3.8-17.9
	l0,0l0,0c-7.2-14.8-23.2-21.7-46.6-21.7H115.4z M163,25.7L163,25.7c4.9,1.5,8.4,3.9,10.7,7.1c2.3,3.1,3.5,7.3,3.5,12.6
	c0,8.1-2.4,13.5-6.7,17c-4.4,3.5-11.5,5.5-21.8,5.5h-13.4V24.1h14.9C155.3,24.1,159.5,24.7,163,25.7z"/>
</svg>
