<?xml version="1.0" encoding="utf-8"?>
<!-- Generator: Adobe Illustrator 24.3.0, SVG Export Plug-In . SVG Version: 6.00 Build 0)  -->
<svg version="1.1" id="Layer_1" xmlns="http://www.w3.org/2000/svg" xmlns:xlink="http://www.w3.org/1999/xlink" x="0px" y="0px"
	 viewBox="0 0 1125.6 135.6" style="enable-background:new 0 0 1125.6 135.6;" xml:space="preserve">
<style type="text/css">
	.st0{fill:#5777FF;stroke:#5777FF;stroke-width:5;}
	.st1{fill:url(#SVGID_1_);}
	.st2{fill:url(#SVGID_2_);}
	.st3{fill:url(#SVGID_3_);}
	.st4{fill:url(#SVGID_4_);}
</style>
<g>
	<path class="st0" d="M1051.7,34.9v2.5h2.5h23.7v73.5v2.5h2.5h12.5h2.5v-2.5V37.4h23.7h2.5v-2.5v-11v-2.5h-2.5h-64.9h-2.5v2.5
		L1051.7,34.9L1051.7,34.9z"/>
	<path class="st0" d="M963.7,21.4h-2.5v2.5v87v2.5h2.5h12.4h2.5v-2.5V57.6v-0.1v-0.1l-0.1-1.9L981,59l0,0l0,0l37.9,53.3l0.8,1.1h1.3
		h8.9h2.5v-2.5v-87v-2.5h-2.5h-12.4h-2.5v2.5v55.2v0.1v0.1l-40.2-56.8l-0.7-1.1h-1.3C972.8,21.4,963.7,21.4,963.7,21.4z"/>
	<path class="st0" d="M897.1,21.4h-1.7l-0.6,1.5l-36.7,87l-1.5,3.5h3.8h12.8h1.7l0.6-1.6l8.1-20.3h35.2l8.2,20.3l0.6,1.6h1.7h13h3.8
		l-1.5-3.5l-36.7-87l-0.6-1.5h-1.7H897.1z M889.7,76.5l11.6-28.9l11.6,28.9H889.7z"/>
	<path class="st0" d="M770.6,21.4h-2.5v2.5v87v2.5h2.5H783h2.5v-2.5V74.4l32,38.1l0.7,0.9h1.2h15.5h5.4l-3.5-4.1l-37.1-43.5
		l34.4-40.3l3.5-4.1h-5.4h-15.6h-1.2l-0.8,0.9l-29.1,35.4V23.9v-2.5H783H770.6z"/>
	<path class="st0" d="M728.7,21.4h-2.5v2.5v87v2.5h2.5h12.5h2.5v-2.5v-87v-2.5h-2.5H728.7z"/>
	<path class="st0" d="M633.2,21.4h-2.5v2.5v87v2.5h2.5h12.4h2.5v-2.5V57.6v-0.1v-0.1l-0.1-1.9l2.5,3.5l0,0l0,0l37.9,53.3l0.7,1.1
		h1.3h8.9h2.5v-2.5v-87v-2.5h-2.5h-12.4h-2.5v2.5v55.2v0.1v0.1l-40.2-56.8l-0.7-1.1h-1.3C642.2,21.4,633.2,21.4,633.2,21.4z"/>
	<path class="st0" d="M555.2,111.2v2.3l2.3,0.2c3.1,0.2,5.6,0.3,7.5,0.3c7,0,13.1-0.9,18.3-2.9c15.6-5.9,22.9-21.2,22.9-44.2v-43
		v-2.5h-2.5h-44.6h-2.5v2.5V35v2.5h2.5h29.6v29.4c0,11.5-2,19.3-5.5,23.9l0,0c-1.7,2.3-3.9,3.9-6.4,4.9l0,0c-2.6,1-5.9,1.6-10.1,1.6
		c-4.3,0-7-0.3-8.3-0.6l-3.2-1v3.4V111.2z"/>
	<path class="st0" d="M492.6,21.4h-1.7l-0.6,1.5l-36.7,87l-1.5,3.5h3.8h12.8h1.7l0.6-1.6l8.1-20.3h35.2l8.2,20.3l0.6,1.6h1.7h13h3.8
		l-1.5-3.5l-36.7-87l-0.6-1.5h-1.7H492.6z M485.2,76.5l11.6-28.9l11.6,28.9H485.2z"/>
	<path class="st0" d="M370.1,21.4h-2.5v2.5v87v2.5h2.5h12.5h2.5v-2.5V81.5h6.6c2.2,8.3,6.2,15.4,11.9,21.1
		c7.1,7.1,15.7,10.7,25.7,10.7h2.8h2.5v-2.4V98.8v-3.1l-3.1,0.7c-0.7,0.2-2.3,0.3-5,0.2c-1.1-0.1-2.7-0.5-4.9-1.6l0,0l0,0
		c-5.7-2.8-10-7.6-12.8-14.8c6.3-1.6,11.4-4.4,15.4-8.5c2.4-2.5,4.2-5.4,5.5-8.8c1.4-3.5,2-7.5,2-12.2c0-4.8-0.9-9.2-2.8-13.2l0,0
		l0,0c-5.4-11-17.2-16-34.1-16L370.1,21.4L370.1,21.4z M404,37.5L404,37.5c3.4,1.1,5.8,2.7,7.3,4.8s2.4,4.9,2.4,8.7
		c0,5.7-1.6,9.4-4.5,11.7c-3,2.4-7.9,3.8-15.2,3.8h-8.9V36.4h9.9C398.7,36.4,401.6,36.8,404,37.5z"/>
	
		<linearGradient id="SVGID_1_" gradientUnits="userSpaceOnUse" x1="73.7502" y1="791.7485" x2="28.2935" y2="885.9155" gradientTransform="matrix(1 0 0 1 0 -746)">
		<stop  offset="0" style="stop-color:#2D49C0"/>
		<stop  offset="0.5" style="stop-color:#4260E1"/>
		<stop  offset="1" style="stop-color:#6B87FF"/>
	</linearGradient>
	<path class="st1" d="M69,131.9h24.2L45.3,65.6H3.1l37.3,51.7C47.1,126.5,57.7,131.9,69,131.9z"/>
	
		<linearGradient id="SVGID_2_" gradientUnits="userSpaceOnUse" x1="81.6734" y1="729.5183" x2="7.9336" y2="838.0551" gradientTransform="matrix(1 0 0 1 0 -746)">
		<stop  offset="0" style="stop-color:#2D49C0"/>
		<stop  offset="0.5" style="stop-color:#4260E1"/>
		<stop  offset="1" style="stop-color:#6B87FF"/>
	</linearGradient>
	<path class="st2" d="M66.2,3.9h24.4L24.2,94.4L3.1,65.6l34.7-47.3C44.4,9.2,55,3.9,66.2,3.9z"/>
	
		<linearGradient id="SVGID_3_" gradientUnits="userSpaceOnUse" x1="295.5403" y1="791.7693" x2="250.0833" y2="885.9363" gradientTransform="matrix(1 0 0 1 0 -746)">
		<stop  offset="0" style="stop-color:#2D49C0"/>
		<stop  offset="0.5" style="stop-color:#4260E1"/>
		<stop  offset="1" style="stop-color:#6B87FF"/>
	</linearGradient>
	<path class="st3" d="M249.1,131.9h-24.2l47.9-66.3H315l-37.3,51.7C271,126.5,260.4,131.9,249.1,131.9z"/>
	
		<linearGradient id="SVGID_4_" gradientUnits="userSpaceOnUse" x1="306.0007" y1="729.4634" x2="232.2687" y2="838.0201" gradientTransform="matrix(1 0 0 1 0 -746)">
		<stop  offset="0" style="stop-color:#2D49C0"/>
		<stop  offset="0.5" style="stop-color:#4260E1"/>
		<stop  offset="1" style="stop-color:#6B87FF"/>
	</linearGradient>
	<path class="st4" d="M251.8,3.9h-24.4l66.4,90.5l21.1-28.8l-34.7-47.3C273.6,9.2,263.1,3.9,251.8,3.9z"/>
	<path class="st0" d="M116.7,5h-2.5v2.5v120.8v2.5h2.5h17.4h2.5v-2.5V86.5h11c3,11.8,8.5,21.7,16.5,29.6
		c9.7,9.7,21.4,14.6,35.2,14.6h3.9h2.5v-2.5v-16.8v-3.1l-3.1,0.7c-1.2,0.3-3.5,0.4-7.2,0.3c-1.7-0.1-4.1-0.8-7.2-2.3l0,0l0,0
		c-8.5-4.1-14.8-11.4-18.8-22.1c9.1-2.1,16.5-6,22-11.8c3.2-3.3,5.7-7.3,7.4-11.9c1.8-4.7,2.7-10.2,2.7-16.6
		c0-6.6-1.3-12.6-3.8-17.9l0,0l0,0C190.5,11.9,174.5,5,151.1,5H116.7z M164.3,25.5L164.3,25.5c4.9,1.5,8.4,3.9,10.7,7.1
		c2.3,3.1,3.5,7.3,3.5,12.6c0,8.1-2.4,13.5-6.7,17c-4.4,3.5-11.5,5.5-21.8,5.5h-13.4V23.9h14.9C156.6,23.9,160.8,24.5,164.3,25.5z"
		/>
</g>
</svg>
